<svg xmlns="http://www.w3.org/2000/svg" viewBox="0 0 600 600" width="600" height="600" role="img">
  <defs>
    <linearGradient id="bg21896" x1="0" y1="0" x2="1" y2="1">
      <stop offset="0" stop-color="#f1f2fb"/><stop offset="1" stop-color="#dcdff5"/>
    </linearGradient>
    <radialGradient id="gl21896" cx="50%" cy="42%" r="52%">
      <stop offset="0" stop-color="#7c5cff" stop-opacity=".55"/>
      <stop offset="1" stop-color="#7c5cff" stop-opacity="0"/>
    </radialGradient>
    <linearGradient id="scr21896" x1="0" y1="0" x2="1" y2="1">
      <stop offset="0" stop-color="#1b6df3"/><stop offset=".55" stop-color="#0f2f6b"/><stop offset="1" stop-color="#ff7a18"/>
    </linearGradient>
    <linearGradient id="mtl21896" x1="0" y1="0" x2="1" y2="1">
      <stop offset="0" stop-color="#f2f5fa"/><stop offset=".5" stop-color="#c9d3e2"/><stop offset="1" stop-color="#9fadc2"/>
    </linearGradient>
    <linearGradient id="drk21896" x1="0" y1="0" x2="1" y2="1">
      <stop offset="0" stop-color="#3b4658"/><stop offset="1" stop-color="#161d2b"/>
    </linearGradient>
    <filter id="sh21896" x="-30%" y="-30%" width="160%" height="160%">
      <feDropShadow dx="0" dy="16" stdDeviation="18" flood-color="#0b1b34" flood-opacity=".28"/>
    </filter>
  </defs>
  <rect width="600" height="600" rx="28" fill="url(#bg21896)"/>
  <rect width="600" height="600" rx="28" fill="url(#gl21896)"/>
  <g filter="url(#sh21896)">
    <rect x="196" y="94" width="208" height="412" rx="40" fill="#7c5cff"/>
    <rect x="196" y="94" width="208" height="412" rx="40" fill="url(#drk21896)" opacity=".35"/>
    <rect x="222" y="122" width="112" height="132" rx="26" fill="#0d1626" opacity=".85"/>
    <circle cx="256" cy="158" r="21" fill="#1b2536"/><circle cx="256" cy="158" r="10" fill="#4c9bff"/>
    <circle cx="302" cy="158" r="21" fill="#1b2536"/><circle cx="302" cy="158" r="10" fill="#4c9bff"/>
    <circle cx="256" cy="212" r="21" fill="#1b2536"/><circle cx="256" cy="212" r="10" fill="#4c9bff"/>
    <rect x="292" y="202" width="20" height="20" rx="6" fill="#ffd88a"/>
    <text x="300" y="446" font-family="Poppins,Arial" font-size="22" fill="#fff" opacity=".6" text-anchor="middle">NOVA</text>
  </g>
  <ellipse cx="300" cy="536" rx="168" ry="17" fill="#0b1b34" opacity=".16"/>
</svg>
