<svg xmlns="http://www.w3.org/2000/svg" viewBox="0 0 600 600" width="600" height="600" role="img">
  <defs>
    <linearGradient id="bg30080" x1="0" y1="0" x2="1" y2="1">
      <stop offset="0" stop-color="#eef0fb"/><stop offset="1" stop-color="#d6dbf3"/>
    </linearGradient>
    <radialGradient id="gl30080" cx="50%" cy="42%" r="52%">
      <stop offset="0" stop-color="#7c5cff" stop-opacity=".55"/>
      <stop offset="1" stop-color="#7c5cff" stop-opacity="0"/>
    </radialGradient>
    <linearGradient id="scr30080" x1="0" y1="0" x2="1" y2="1">
      <stop offset="0" stop-color="#1b6df3"/><stop offset=".55" stop-color="#0f2f6b"/><stop offset="1" stop-color="#ff7a18"/>
    </linearGradient>
    <linearGradient id="mtl30080" x1="0" y1="0" x2="1" y2="1">
      <stop offset="0" stop-color="#f2f5fa"/><stop offset=".5" stop-color="#c9d3e2"/><stop offset="1" stop-color="#9fadc2"/>
    </linearGradient>
    <linearGradient id="drk30080" x1="0" y1="0" x2="1" y2="1">
      <stop offset="0" stop-color="#3b4658"/><stop offset="1" stop-color="#161d2b"/>
    </linearGradient>
    <filter id="sh30080" x="-30%" y="-30%" width="160%" height="160%">
      <feDropShadow dx="0" dy="16" stdDeviation="18" flood-color="#0b1b34" flood-opacity=".28"/>
    </filter>
  </defs>
  <rect width="600" height="600" rx="28" fill="url(#bg30080)"/>
  <rect width="600" height="600" rx="28" fill="url(#gl30080)"/>
  <g filter="url(#sh30080)">
    <rect x="200" y="230" width="200" height="200" rx="24" fill="url(#drk30080)"/>
    <rect x="224" y="254" width="36" height="36" rx="8" fill="#7c5cff" opacity="0.25"/><rect x="268" y="254" width="36" height="36" rx="8" fill="#7c5cff" opacity="0.43"/><rect x="312" y="254" width="36" height="36" rx="8" fill="#7c5cff" opacity="0.61"/><rect x="356" y="254" width="36" height="36" rx="8" fill="#7c5cff" opacity="0.79"/><rect x="224" y="298" width="36" height="36" rx="8" fill="#7c5cff" opacity="0.43"/><rect x="268" y="298" width="36" height="36" rx="8" fill="#7c5cff" opacity="0.61"/><rect x="312" y="298" width="36" height="36" rx="8" fill="#7c5cff" opacity="0.79"/><rect x="356" y="298" width="36" height="36" rx="8" fill="#7c5cff" opacity="0.25"/><rect x="224" y="342" width="36" height="36" rx="8" fill="#7c5cff" opacity="0.61"/><rect x="268" y="342" width="36" height="36" rx="8" fill="#7c5cff" opacity="0.79"/><rect x="312" y="342" width="36" height="36" rx="8" fill="#7c5cff" opacity="0.25"/><rect x="356" y="342" width="36" height="36" rx="8" fill="#7c5cff" opacity="0.43"/><rect x="224" y="386" width="36" height="36" rx="8" fill="#7c5cff" opacity="0.79"/><rect x="268" y="386" width="36" height="36" rx="8" fill="#7c5cff" opacity="0.25"/><rect x="312" y="386" width="36" height="36" rx="8" fill="#7c5cff" opacity="0.43"/><rect x="356" y="386" width="36" height="36" rx="8" fill="#7c5cff" opacity="0.61"/>
  </g>
  <ellipse cx="300" cy="536" rx="168" ry="17" fill="#0b1b34" opacity=".16"/>
</svg>
