<svg xmlns="http://www.w3.org/2000/svg" viewBox="0 0 600 600" width="600" height="600" role="img">
  <defs>
    <linearGradient id="bg53062" x1="0" y1="0" x2="1" y2="1">
      <stop offset="0" stop-color="#fdeef1"/><stop offset="1" stop-color="#f6d3da"/>
    </linearGradient>
    <radialGradient id="gl53062" cx="50%" cy="42%" r="52%">
      <stop offset="0" stop-color="#ff4d6d" stop-opacity=".55"/>
      <stop offset="1" stop-color="#ff4d6d" stop-opacity="0"/>
    </radialGradient>
    <linearGradient id="scr53062" x1="0" y1="0" x2="1" y2="1">
      <stop offset="0" stop-color="#1b6df3"/><stop offset=".55" stop-color="#0f2f6b"/><stop offset="1" stop-color="#ff7a18"/>
    </linearGradient>
    <linearGradient id="mtl53062" x1="0" y1="0" x2="1" y2="1">
      <stop offset="0" stop-color="#f2f5fa"/><stop offset=".5" stop-color="#c9d3e2"/><stop offset="1" stop-color="#9fadc2"/>
    </linearGradient>
    <linearGradient id="drk53062" x1="0" y1="0" x2="1" y2="1">
      <stop offset="0" stop-color="#3b4658"/><stop offset="1" stop-color="#161d2b"/>
    </linearGradient>
    <filter id="sh53062" x="-30%" y="-30%" width="160%" height="160%">
      <feDropShadow dx="0" dy="16" stdDeviation="18" flood-color="#0b1b34" flood-opacity=".28"/>
    </filter>
  </defs>
  <rect width="600" height="600" rx="28" fill="url(#bg53062)"/>
  <rect width="600" height="600" rx="28" fill="url(#gl53062)"/>
  <g filter="url(#sh53062)">
    <ellipse cx="300" cy="300" rx="132" ry="132" fill="url(#mtl53062)"/>
    <circle cx="300" cy="300" r="112" fill="#0d1626"/>
    <circle cx="300" cy="300" r="98" fill="url(#scr53062)" opacity=".9"/>
    <circle cx="300" cy="300" r="74" fill="none" stroke="#ff4d6d" stroke-width="12" stroke-dasharray="350 120" stroke-linecap="round" transform="rotate(-90 300 300)"/>
    <text x="300" y="288" font-family="Poppins,Arial" font-size="34" font-weight="700" fill="#fff" text-anchor="middle">12,480</text>
    <text x="300" y="318" font-family="Poppins,Arial" font-size="17" fill="#fff" opacity=".7" text-anchor="middle">steps</text>
    <path d="M250 168l100-8-8 34h-84z" fill="#ff4d6d" opacity=".9"/>
    <path d="M258 430h84l8 34-100-8z" fill="#ff4d6d" opacity=".9"/>
  </g>
  <ellipse cx="300" cy="536" rx="168" ry="17" fill="#0b1b34" opacity=".16"/>
</svg>
