<svg xmlns="http://www.w3.org/2000/svg" viewBox="0 0 600 600" width="600" height="600" role="img">
  <defs>
    <linearGradient id="bg29440" x1="0" y1="0" x2="1" y2="1">
      <stop offset="0" stop-color="#fdeef1"/><stop offset="1" stop-color="#f6d3da"/>
    </linearGradient>
    <radialGradient id="gl29440" cx="50%" cy="42%" r="52%">
      <stop offset="0" stop-color="#ff4d6d" stop-opacity=".55"/>
      <stop offset="1" stop-color="#ff4d6d" stop-opacity="0"/>
    </radialGradient>
    <linearGradient id="scr29440" x1="0" y1="0" x2="1" y2="1">
      <stop offset="0" stop-color="#1b6df3"/><stop offset=".55" stop-color="#0f2f6b"/><stop offset="1" stop-color="#ff7a18"/>
    </linearGradient>
    <linearGradient id="mtl29440" x1="0" y1="0" x2="1" y2="1">
      <stop offset="0" stop-color="#f2f5fa"/><stop offset=".5" stop-color="#c9d3e2"/><stop offset="1" stop-color="#9fadc2"/>
    </linearGradient>
    <linearGradient id="drk29440" x1="0" y1="0" x2="1" y2="1">
      <stop offset="0" stop-color="#3b4658"/><stop offset="1" stop-color="#161d2b"/>
    </linearGradient>
    <filter id="sh29440" x="-30%" y="-30%" width="160%" height="160%">
      <feDropShadow dx="0" dy="16" stdDeviation="18" flood-color="#0b1b34" flood-opacity=".28"/>
    </filter>
  </defs>
  <rect width="600" height="600" rx="28" fill="url(#bg29440)"/>
  <rect width="600" height="600" rx="28" fill="url(#gl29440)"/>
  <g filter="url(#sh29440)">
    <path d="M158 336V286a142 142 0 0 1 284 0v50" fill="none" stroke="url(#drk29440)" stroke-width="34" stroke-linecap="round"/>
    <path d="M170 300a130 130 0 0 1 260 0" fill="none" stroke="#ff4d6d" stroke-width="10" stroke-linecap="round" opacity=".8"/>
    <rect x="124" y="296" width="86" height="150" rx="40" fill="url(#drk29440)"/>
    <rect x="390" y="296" width="86" height="150" rx="40" fill="url(#drk29440)"/>
    <ellipse cx="176" cy="371" rx="28" ry="52" fill="#ff4d6d" opacity=".9"/>
    <ellipse cx="424" cy="371" rx="28" ry="52" fill="#ff4d6d" opacity=".9"/>
    <circle cx="167" cy="371" r="12" fill="#0d1626" opacity=".5"/>
  </g>
  <ellipse cx="300" cy="536" rx="168" ry="17" fill="#0b1b34" opacity=".16"/>
</svg>
