<svg xmlns="http://www.w3.org/2000/svg" viewBox="0 0 600 600" width="600" height="600" role="img">
  <defs>
    <linearGradient id="bg98257" x1="0" y1="0" x2="1" y2="1">
      <stop offset="0" stop-color="#eef7f3"/><stop offset="1" stop-color="#d3ebe1"/>
    </linearGradient>
    <radialGradient id="gl98257" cx="50%" cy="42%" r="52%">
      <stop offset="0" stop-color="#12b886" stop-opacity=".55"/>
      <stop offset="1" stop-color="#12b886" stop-opacity="0"/>
    </radialGradient>
    <linearGradient id="scr98257" x1="0" y1="0" x2="1" y2="1">
      <stop offset="0" stop-color="#1b6df3"/><stop offset=".55" stop-color="#0f2f6b"/><stop offset="1" stop-color="#ff7a18"/>
    </linearGradient>
    <linearGradient id="mtl98257" x1="0" y1="0" x2="1" y2="1">
      <stop offset="0" stop-color="#f2f5fa"/><stop offset=".5" stop-color="#c9d3e2"/><stop offset="1" stop-color="#9fadc2"/>
    </linearGradient>
    <linearGradient id="drk98257" x1="0" y1="0" x2="1" y2="1">
      <stop offset="0" stop-color="#3b4658"/><stop offset="1" stop-color="#161d2b"/>
    </linearGradient>
    <filter id="sh98257" x="-30%" y="-30%" width="160%" height="160%">
      <feDropShadow dx="0" dy="16" stdDeviation="18" flood-color="#0b1b34" flood-opacity=".28"/>
    </filter>
  </defs>
  <rect width="600" height="600" rx="28" fill="url(#bg98257)"/>
  <rect width="600" height="600" rx="28" fill="url(#gl98257)"/>
  <g filter="url(#sh98257)">
    <rect x="128" y="182" width="344" height="216" rx="20" fill="url(#mtl98257)"/>
    <rect x="128" y="182" width="344" height="216" rx="20" fill="none" stroke="#b6c2d3" stroke-width="2"/>
    <path d="M148 398h304q16 0 16 12v12q0 12-16 12H148q-16 0-16-12v-12q0-12 16-12z" fill="#c2cddd"/>
    <rect x="262" y="418" width="76" height="6" rx="3" fill="#9fadc2"/>
    <path d="M144 198h312" stroke="#fff" stroke-width="3" stroke-linecap="round" opacity=".85"/>
    <circle cx="300" cy="286" r="46" fill="#12b886" opacity=".14"/>
    <path d="M308 254l-30 44h22l-8 34 32-48h-22z" fill="#12b886"/>
    <text x="300" y="358" font-family="Poppins,Arial" font-size="17" letter-spacing="3"
          fill="#8c99ad" text-anchor="middle">TECHNOVA</text>
  </g>
  <ellipse cx="300" cy="536" rx="168" ry="17" fill="#0b1b34" opacity=".16"/>
</svg>
