<svg xmlns="http://www.w3.org/2000/svg" viewBox="0 0 600 600" width="600" height="600" role="img">
  <defs>
    <linearGradient id="bg71932" x1="0" y1="0" x2="1" y2="1">
      <stop offset="0" stop-color="#eef7f3"/><stop offset="1" stop-color="#d3ebe1"/>
    </linearGradient>
    <radialGradient id="gl71932" cx="50%" cy="42%" r="52%">
      <stop offset="0" stop-color="#12b886" stop-opacity=".55"/>
      <stop offset="1" stop-color="#12b886" stop-opacity="0"/>
    </radialGradient>
    <linearGradient id="scr71932" x1="0" y1="0" x2="1" y2="1">
      <stop offset="0" stop-color="#1b6df3"/><stop offset=".55" stop-color="#0f2f6b"/><stop offset="1" stop-color="#ff7a18"/>
    </linearGradient>
    <linearGradient id="mtl71932" x1="0" y1="0" x2="1" y2="1">
      <stop offset="0" stop-color="#f2f5fa"/><stop offset=".5" stop-color="#c9d3e2"/><stop offset="1" stop-color="#9fadc2"/>
    </linearGradient>
    <linearGradient id="drk71932" x1="0" y1="0" x2="1" y2="1">
      <stop offset="0" stop-color="#3b4658"/><stop offset="1" stop-color="#161d2b"/>
    </linearGradient>
    <filter id="sh71932" x="-30%" y="-30%" width="160%" height="160%">
      <feDropShadow dx="0" dy="16" stdDeviation="18" flood-color="#0b1b34" flood-opacity=".28"/>
    </filter>
  </defs>
  <rect width="600" height="600" rx="28" fill="url(#bg71932)"/>
  <rect width="600" height="600" rx="28" fill="url(#gl71932)"/>
  <g filter="url(#sh71932)">
    <path d="M196 252q104-46 208 0" fill="none" stroke="url(#drk71932)" stroke-width="30" stroke-linecap="round"/>
    <path d="M200 258q100-42 200 0" fill="none" stroke="#12b886" stroke-width="9" stroke-linecap="round" opacity=".75"/>
    <path d="M188 250v70" stroke="url(#drk71932)" stroke-width="18" stroke-linecap="round"/>
    <path d="M412 250v70" stroke="url(#drk71932)" stroke-width="18" stroke-linecap="round"/>
    <ellipse cx="188" cy="360" rx="66" ry="62" fill="url(#drk71932)"/>
    <ellipse cx="412" cy="360" rx="66" ry="62" fill="url(#drk71932)"/>
    <ellipse cx="188" cy="360" rx="42" ry="39" fill="#12b886" opacity=".9"/>
    <ellipse cx="412" cy="360" rx="42" ry="39" fill="#12b886" opacity=".9"/>
    <circle cx="188" cy="360" r="15" fill="#0d1626" opacity=".45"/>
    <circle cx="412" cy="360" r="15" fill="#0d1626" opacity=".45"/>
    <path d="M188 424q0 46 46 52" fill="none" stroke="#2b3446" stroke-width="9" stroke-linecap="round"/>
  </g>
  <ellipse cx="300" cy="536" rx="168" ry="17" fill="#0b1b34" opacity=".16"/>
</svg>
