<svg xmlns="http://www.w3.org/2000/svg" viewBox="0 0 600 600" width="600" height="600" role="img">
  <defs>
    <linearGradient id="bg99591" x1="0" y1="0" x2="1" y2="1">
      <stop offset="0" stop-color="#eaf0fa"/><stop offset="1" stop-color="#cfdcf0"/>
    </linearGradient>
    <radialGradient id="gl99591" cx="50%" cy="42%" r="52%">
      <stop offset="0" stop-color="#1b6df3" stop-opacity=".55"/>
      <stop offset="1" stop-color="#1b6df3" stop-opacity="0"/>
    </radialGradient>
    <linearGradient id="scr99591" x1="0" y1="0" x2="1" y2="1">
      <stop offset="0" stop-color="#1b6df3"/><stop offset=".55" stop-color="#0f2f6b"/><stop offset="1" stop-color="#ff7a18"/>
    </linearGradient>
    <linearGradient id="mtl99591" x1="0" y1="0" x2="1" y2="1">
      <stop offset="0" stop-color="#f2f5fa"/><stop offset=".5" stop-color="#c9d3e2"/><stop offset="1" stop-color="#9fadc2"/>
    </linearGradient>
    <linearGradient id="drk99591" x1="0" y1="0" x2="1" y2="1">
      <stop offset="0" stop-color="#3b4658"/><stop offset="1" stop-color="#161d2b"/>
    </linearGradient>
    <filter id="sh99591" x="-30%" y="-30%" width="160%" height="160%">
      <feDropShadow dx="0" dy="16" stdDeviation="18" flood-color="#0b1b34" flood-opacity=".28"/>
    </filter>
  </defs>
  <rect width="600" height="600" rx="28" fill="url(#bg99591)"/>
  <rect width="600" height="600" rx="28" fill="url(#gl99591)"/>
  <g filter="url(#sh99591)">
    <path d="M212 344V292a108 108 0 0 1 216 0v52" fill="none" stroke="url(#drk99591)" stroke-width="30" stroke-linecap="round"/>
    <ellipse cx="212" cy="386" rx="62" ry="76" fill="url(#drk99591)"/>
    <ellipse cx="212" cy="386" rx="40" ry="54" fill="#1b6df3" opacity=".9"/>
    <ellipse cx="428" cy="386" rx="46" ry="72" fill="url(#drk99591)" opacity=".55"/>
    <circle cx="212" cy="386" r="16" fill="#0d1626" opacity=".45"/>
    <rect x="196" y="470" width="32" height="10" rx="5" fill="#1b6df3"/>
  </g>
  <ellipse cx="300" cy="536" rx="168" ry="17" fill="#0b1b34" opacity=".16"/>
</svg>
