<svg xmlns="http://www.w3.org/2000/svg" viewBox="0 0 600 600" width="600" height="600" role="img">
  <defs>
    <linearGradient id="bg32004" x1="0" y1="0" x2="1" y2="1">
      <stop offset="0" stop-color="#eef7f3"/><stop offset="1" stop-color="#d3ebe1"/>
    </linearGradient>
    <radialGradient id="gl32004" cx="50%" cy="42%" r="52%">
      <stop offset="0" stop-color="#12b886" stop-opacity=".55"/>
      <stop offset="1" stop-color="#12b886" stop-opacity="0"/>
    </radialGradient>
    <linearGradient id="scr32004" x1="0" y1="0" x2="1" y2="1">
      <stop offset="0" stop-color="#1b6df3"/><stop offset=".55" stop-color="#0f2f6b"/><stop offset="1" stop-color="#ff7a18"/>
    </linearGradient>
    <linearGradient id="mtl32004" x1="0" y1="0" x2="1" y2="1">
      <stop offset="0" stop-color="#f2f5fa"/><stop offset=".5" stop-color="#c9d3e2"/><stop offset="1" stop-color="#9fadc2"/>
    </linearGradient>
    <linearGradient id="drk32004" x1="0" y1="0" x2="1" y2="1">
      <stop offset="0" stop-color="#3b4658"/><stop offset="1" stop-color="#161d2b"/>
    </linearGradient>
    <filter id="sh32004" x="-30%" y="-30%" width="160%" height="160%">
      <feDropShadow dx="0" dy="16" stdDeviation="18" flood-color="#0b1b34" flood-opacity=".28"/>
    </filter>
  </defs>
  <rect width="600" height="600" rx="28" fill="url(#bg32004)"/>
  <rect width="600" height="600" rx="28" fill="url(#gl32004)"/>
  <g filter="url(#sh32004)">
    <path d="M214 348V296a106 106 0 0 1 212 0v52" fill="none" stroke="url(#drk32004)" stroke-width="28" stroke-linecap="round"/>
    <ellipse cx="214" cy="390" rx="60" ry="74" fill="url(#drk32004)"/>
    <ellipse cx="214" cy="390" rx="38" ry="52" fill="#12b886" opacity=".85"/>
    <path d="M250 420q56 14 64 62" fill="none" stroke="#2b3446" stroke-width="12" stroke-linecap="round"/>
  </g>
  <ellipse cx="300" cy="536" rx="168" ry="17" fill="#0b1b34" opacity=".16"/>
</svg>
